<svg id="visual" viewBox="0 0 900 600" width="900" height="600" xmlns="http://www.w3.org/2000/svg" xmlns:xlink="http://www.w3.org/1999/xlink" version="1.1"><rect x="0" y="0" width="900" height="600" fill="#001220"></rect><path d="M0 458L21.5 455.8C43 453.7 86 449.3 128.8 451.7C171.7 454 214.3 463 257.2 459.7C300 456.3 343 440.7 385.8 432.5C428.7 424.3 471.3 423.7 514.2 429.7C557 435.7 600 448.3 642.8 455.2C685.7 462 728.3 463 771.2 453.2C814 443.3 857 422.7 878.5 412.3L900 402L900 601L878.5 601C857 601 814 601 771.2 601C728.3 601 685.7 601 642.8 601C600 601 557 601 514.2 601C471.3 601 428.7 601 385.8 601C343 601 300 601 257.2 601C214.3 601 171.7 601 128.8 601C86 601 43 601 21.5 601L0 601Z" fill="#69b8fa"></path><path d="M0 480L21.5 482.3C43 484.7 86 489.3 128.8 492.8C171.7 496.3 214.3 498.7 257.2 492.7C300 486.7 343 472.3 385.8 468.7C428.7 465 471.3 472 514.2 471.3C557 470.7 600 462.3 642.8 459C685.7 455.7 728.3 457.3 771.2 461.5C814 465.7 857 472.3 878.5 475.7L900 479L900 601L878.5 601C857 601 814 601 771.2 601C728.3 601 685.7 601 642.8 601C600 601 557 601 514.2 601C471.3 601 428.7 601 385.8 601C343 601 300 601 257.2 601C214.3 601 171.7 601 128.8 601C86 601 43 601 21.5 601L0 601Z" fill="#3699f5"></path><path d="M0 506L21.5 500.8C43 495.7 86 485.3 128.8 486.2C171.7 487 214.3 499 257.2 505.2C300 511.3 343 511.7 385.8 509.7C428.7 507.7 471.3 503.3 514.2 498.7C557 494 600 489 642.8 484.2C685.7 479.3 728.3 474.7 771.2 480.7C814 486.7 857 503.3 878.5 511.7L900 520L900 601L878.5 601C857 601 814 601 771.2 601C728.3 601 685.7 601 642.8 601C600 601 557 601 514.2 601C471.3 601 428.7 601 385.8 601C343 601 300 601 257.2 601C214.3 601 171.7 601 128.8 601C86 601 43 601 21.5 601L0 601Z" fill="#0078ec"></path><path d="M0 523L21.5 528.2C43 533.3 86 543.7 128.8 548C171.7 552.3 214.3 550.7 257.2 549.7C300 548.7 343 548.3 385.8 546.3C428.7 544.3 471.3 540.7 514.2 537.3C557 534 600 531 642.8 531.5C685.7 532 728.3 536 771.2 532.2C814 528.3 857 516.7 878.5 510.8L900 505L900 601L878.5 601C857 601 814 601 771.2 601C728.3 601 685.7 601 642.8 601C600 601 557 601 514.2 601C471.3 601 428.7 601 385.8 601C343 601 300 601 257.2 601C214.3 601 171.7 601 128.8 601C86 601 43 601 21.5 601L0 601Z" fill="#0054dd"></path><path d="M0 579L21.5 578.5C43 578 86 577 128.8 572C171.7 567 214.3 558 257.2 554C300 550 343 551 385.8 552.8C428.7 554.7 471.3 557.3 514.2 557.3C557 557.3 600 554.7 642.8 555.2C685.7 555.7 728.3 559.3 771.2 560.2C814 561 857 559 878.5 558L900 557L900 601L878.5 601C857 601 814 601 771.2 601C728.3 601 685.7 601 642.8 601C600 601 557 601 514.2 601C471.3 601 428.7 601 385.8 601C343 601 300 601 257.2 601C214.3 601 171.7 601 128.8 601C86 601 43 601 21.5 601L0 601Z" fill="#2429c7"></path></svg>